# xmcd CD database file
#
# Track frame offsets:
#	225
#	13027
#	50698
#	73374
#	93673
#	114060
#	144553
#	170339
#	200007
#
# Disc length: 2789 seconds
#
# Revision: 3
# Processed by: cddbd v1.5.2PL0 Copyright (c) Steve Scherf et al.
# Submitted via: CDex 1.70beta2
#
DISCID=820ae209
DTITLE=Dzem - Detox
DYEAR=1991
DGENRE=Blues-Rock
TTITLE0=Smiech czy lzy
TTITLE1=Ostatnie widzenie
TTITLE2=Mamy forse, mamy czas
TTITLE3=Jak malowany ptak
TTITLE4=Czarny chleb
TTITLE5=Detox
TTITLE6=Sen o Victorii
TTITLE7=List do M.
TTITLE8=Letni spacer z Agnieszka
EXTD=YEAR: 1991
EXTT0=
EXTT1=
EXTT2=
EXTT3=
EXTT4=
EXTT5=
EXTT6=
EXTT7=
EXTT8=
PLAYORDER=
